<?xml version="1.0" encoding="utf-8"?>
<!-- Generator: Adobe Illustrator 23.0.2, SVG Export Plug-In . SVG Version: 6.00 Build 0)  -->
<svg version="1.1" id="Capa_1" focusable="false" xmlns="http://www.w3.org/2000/svg" xmlns:xlink="http://www.w3.org/1999/xlink"
	 x="0px" y="0px" viewBox="0 0 576 512" style="enable-background:new 0 0 576 512;" xml:space="preserve">
<style type="text/css">
	.st0{fill:#E17334;}
</style>
<path class="st0" d="M528,64H48C21.5,64,0,85.5,0,112v288c0,26.5,21.5,48,48,48h480c26.5,0,48-21.5,48-48V112
	C576,85.5,554.5,64,528,64z M536,400c0,4.4-3.6,8-8,8H48c-4.4,0-8-3.6-8-8V112c0-4.4,3.6-8,8-8h480c4.4,0,8,3.6,8,8V400z M170,270
	v-28c0-6.6-5.4-12-12-12h-28c-6.6,0-12,5.4-12,12v28c0,6.6,5.4,12,12,12h28C164.6,282,170,276.6,170,270z M266,270v-28
	c0-6.6-5.4-12-12-12h-28c-6.6,0-12,5.4-12,12v28c0,6.6,5.4,12,12,12h28C260.6,282,266,276.6,266,270z M362,270v-28
	c0-6.6-5.4-12-12-12h-28c-6.6,0-12,5.4-12,12v28c0,6.6,5.4,12,12,12h28C356.6,282,362,276.6,362,270z M458,270v-28
	c0-6.6-5.4-12-12-12h-28c-6.6,0-12,5.4-12,12v28c0,6.6,5.4,12,12,12h28C452.6,282,458,276.6,458,270z M122,352v-28
	c0-6.6-5.4-12-12-12H82c-6.6,0-12,5.4-12,12v28c0,6.6,5.4,12,12,12h28C116.6,364,122,358.6,122,352z M506,352v-28
	c0-6.6-5.4-12-12-12h-28c-6.6,0-12,5.4-12,12v28c0,6.6,5.4,12,12,12h28C500.6,364,506,358.6,506,352z M122,188v-28
	c0-6.6-5.4-12-12-12H82c-6.6,0-12,5.4-12,12v28c0,6.6,5.4,12,12,12h28C116.6,200,122,194.6,122,188z M218,188v-28
	c0-6.6-5.4-12-12-12h-28c-6.6,0-12,5.4-12,12v28c0,6.6,5.4,12,12,12h28C212.6,200,218,194.6,218,188z M314,188v-28
	c0-6.6-5.4-12-12-12h-28c-6.6,0-12,5.4-12,12v28c0,6.6,5.4,12,12,12h28C308.6,200,314,194.6,314,188z M410,188v-28
	c0-6.6-5.4-12-12-12h-28c-6.6,0-12,5.4-12,12v28c0,6.6,5.4,12,12,12h28C404.6,200,410,194.6,410,188z M506,188v-28
	c0-6.6-5.4-12-12-12h-28c-6.6,0-12,5.4-12,12v28c0,6.6,5.4,12,12,12h28C500.6,200,506,194.6,506,188z M408,346v-16
	c0-6.6-5.4-12-12-12H180c-6.6,0-12,5.4-12,12v16c0,6.6,5.4,12,12,12h216C402.6,358,408,352.6,408,346z"/>
</svg>
